<svg xmlns="http://www.w3.org/2000/svg" width="30" height="20.919" viewBox="0 0 30 20.919">
  <g id="noun_assembly_564913" transform="translate(-3.999 -18.64)">
    <path id="Path_1" data-name="Path 1" d="M33.9,26.826c0,.267.067.3.567.567.433-2.167,2.866-3.266,4.8-3.033,1.567.167,3.566,1.2,3.933,3.033.567-.3.567-.367.567-.7a5.551,5.551,0,0,1-.067-1.967,5.851,5.851,0,0,0-2.4-1.3.287.287,0,0,1-.167-.433,2.855,2.855,0,0,0,.467-1.9,2.794,2.794,0,0,0-5.566.333,2.515,2.515,0,0,0,.5,1.567.287.287,0,0,1-.167.433,7.687,7.687,0,0,0-2.4,1.2A6.085,6.085,0,0,1,33.9,26.826Z" transform="translate(-19.935 0)" fill="#9b2450"/>
    <path id="Path_2" data-name="Path 2" d="M11.3,34.9c.033-.367.767.033,1.2-.6a4.938,4.938,0,0,0,.6-1.267,6.517,6.517,0,0,0,.3-2.4h0a3.939,3.939,0,0,0-3.4-3.6,3.987,3.987,0,0,0-4.5,3.833,4.1,4.1,0,0,0,.533,2.1,1.2,1.2,0,0,1-.367,1.567A3.383,3.383,0,0,0,4,37.2c-.033,2.033,2.2,3.733,5,3.766a7.435,7.435,0,0,0,1.8-.2v-.133c.033-1.1,1-2.067,2.5-2.7,0-.133.033-.267.033-.4C13.365,36.334,11.2,36.367,11.3,34.9Z" transform="translate(0 -5.575)" fill="#9b2450"/>
    <path id="Path_3" data-name="Path 3" d="M73.154,34.353a1.178,1.178,0,0,1-.4-1.567,3.912,3.912,0,0,0,.533-2.133,4.005,4.005,0,0,0-8-.133v.167a5.907,5.907,0,0,0,.3,2.133,5.689,5.689,0,0,0,.667,1.433c.433.667,1.2.233,1.233.6.133,1.467-2.1,1.433-2.067,2.633,0,.167.033.333.033.5,1.433.633,2.367,1.567,2.4,2.633v.067a6.014,6.014,0,0,0,1.967.233c2.867-.1,5.1-1.833,5.033-3.9A3.22,3.22,0,0,0,73.154,34.353Z" transform="translate(-40.856 -5.427)" fill="#9b2450"/>
    <path id="Path_4" data-name="Path 4" d="M38.566,44.874a13.632,13.632,0,0,0-1.4-.533.434.434,0,0,1-.233-.667,4.235,4.235,0,0,0,.733-2.933,1.2,1.2,0,0,0-.067-.367,4.4,4.4,0,0,0-3.733-3.433,4.32,4.32,0,0,0-4.733,3.433,3.843,3.843,0,0,0-.1.867,4.14,4.14,0,0,0,.767,2.433.439.439,0,0,1-.233.667,10.049,10.049,0,0,0-1.2.433c-1.633.733-2.667,1.8-2.667,3v.133c.133,2.133,3.533,3.833,7.7,3.833,4.2,0,7.6-1.733,7.7-3.9v-.1C41.066,46.64,40.1,45.607,38.566,44.874Z" transform="translate(-14.468 -12.181)" fill="#9b2450"/>
  </g>
</svg>
